<mxfile host="app.diagrams.net" modified="2022-03-17T23:00:10.271Z" agent="5.0 (Macintosh; Intel Mac OS X 10_15_7) AppleWebKit/605.1.15 (KHTML, like Gecko) Version/15.4 Safari/605.1.15" etag="A81CP7EwzSzn3HV-Bvx5" version="17.1.3" type="github">
  <diagram id="D6oS7Q5jwA-iXbtK-qyM" name="Page-1">
    <mxGraphModel dx="1018" dy="689" grid="1" gridSize="10" guides="1" tooltips="1" connect="1" arrows="1" fold="1" page="1" pageScale="1" pageWidth="850" pageHeight="1100" math="0" shadow="0">
      <root>
        <mxCell id="0" />
        <mxCell id="1" parent="0" />
        <mxCell id="qCCX2EuZM0Db2eChla2d-1" value="&lt;i&gt;RR&lt;/i&gt;" style="rounded=0;whiteSpace=wrap;html=1;" vertex="1" parent="1">
          <mxGeometry x="9" y="140" width="78" height="20" as="geometry" />
        </mxCell>
        <mxCell id="qCCX2EuZM0Db2eChla2d-2" style="edgeStyle=orthogonalEdgeStyle;rounded=0;orthogonalLoop=1;jettySize=auto;html=1;exitX=1;exitY=0.5;exitDx=0;exitDy=0;entryX=0;entryY=0.5;entryDx=0;entryDy=0;" edge="1" parent="1">
          <mxGeometry relative="1" as="geometry">
            <mxPoint x="144" y="150" as="sourcePoint" />
            <mxPoint x="184" y="150" as="targetPoint" />
          </mxGeometry>
        </mxCell>
        <mxCell id="qCCX2EuZM0Db2eChla2d-3" value="" style="shape=image;html=1;verticalAlign=top;verticalLabelPosition=bottom;labelBackgroundColor=#ffffff;imageAspect=0;aspect=fixed;image=https://cdn3.iconfinder.com/data/icons/user-interface-169/32/plus-128.png" vertex="1" parent="1">
          <mxGeometry x="91" y="142" width="18" height="18" as="geometry" />
        </mxCell>
        <mxCell id="qCCX2EuZM0Db2eChla2d-4" value="a-R" style="shape=process;whiteSpace=wrap;html=1;backgroundOutline=1;" vertex="1" parent="1">
          <mxGeometry x="187" y="140" width="80" height="20" as="geometry" />
        </mxCell>
        <mxCell id="qCCX2EuZM0Db2eChla2d-5" value="" style="shape=image;html=1;verticalAlign=top;verticalLabelPosition=bottom;labelBackgroundColor=#ffffff;imageAspect=0;aspect=fixed;image=https://cdn3.iconfinder.com/data/icons/user-interface-169/32/plus-128.png" vertex="1" parent="1">
          <mxGeometry x="270" y="142" width="18" height="18" as="geometry" />
        </mxCell>
        <mxCell id="qCCX2EuZM0Db2eChla2d-6" style="edgeStyle=orthogonalEdgeStyle;rounded=0;orthogonalLoop=1;jettySize=auto;html=1;exitX=1;exitY=0.5;exitDx=0;exitDy=0;entryX=0;entryY=0.5;entryDx=0;entryDy=0;" edge="1" parent="1" target="qCCX2EuZM0Db2eChla2d-7">
          <mxGeometry relative="1" as="geometry">
            <mxPoint x="323" y="149" as="sourcePoint" />
          </mxGeometry>
        </mxCell>
        <mxCell id="qCCX2EuZM0Db2eChla2d-7" value="ab-R" style="shape=process;whiteSpace=wrap;html=1;backgroundOutline=1;" vertex="1" parent="1">
          <mxGeometry x="350" y="139" width="80" height="101" as="geometry" />
        </mxCell>
        <mxCell id="qCCX2EuZM0Db2eChla2d-8" value="a" style="rhombus;whiteSpace=wrap;html=1;fillColor=#d5e8d4;strokeColor=#82b366;" vertex="1" parent="1">
          <mxGeometry x="111" y="130" width="29" height="40" as="geometry" />
        </mxCell>
        <mxCell id="qCCX2EuZM0Db2eChla2d-9" value="" style="edgeStyle=orthogonalEdgeStyle;rounded=0;orthogonalLoop=1;jettySize=auto;html=1;" edge="1" parent="1" source="qCCX2EuZM0Db2eChla2d-10" target="qCCX2EuZM0Db2eChla2d-7">
          <mxGeometry relative="1" as="geometry" />
        </mxCell>
        <mxCell id="qCCX2EuZM0Db2eChla2d-10" value="b" style="rhombus;whiteSpace=wrap;html=1;fillColor=#f8cecc;strokeColor=#b85450;" vertex="1" parent="1">
          <mxGeometry x="289" y="129" width="29" height="40" as="geometry" />
        </mxCell>
        <mxCell id="qCCX2EuZM0Db2eChla2d-11" value="c" style="rhombus;whiteSpace=wrap;html=1;fillColor=#dae8fc;strokeColor=#6c8ebf;" vertex="1" parent="1">
          <mxGeometry x="466" y="130" width="29" height="40" as="geometry" />
        </mxCell>
        <mxCell id="qCCX2EuZM0Db2eChla2d-12" value="" style="shape=image;html=1;verticalAlign=top;verticalLabelPosition=bottom;labelBackgroundColor=#ffffff;imageAspect=0;aspect=fixed;image=https://cdn3.iconfinder.com/data/icons/user-interface-169/32/plus-128.png" vertex="1" parent="1">
          <mxGeometry x="442" y="141" width="18" height="18" as="geometry" />
        </mxCell>
        <mxCell id="qCCX2EuZM0Db2eChla2d-13" value="abc-R" style="shape=process;whiteSpace=wrap;html=1;backgroundOutline=1;fillColor=#76608a;strokeColor=#432D57;fontColor=#ffffff;" vertex="1" parent="1">
          <mxGeometry x="534" y="139" width="80" height="20" as="geometry" />
        </mxCell>
        <mxCell id="qCCX2EuZM0Db2eChla2d-14" value="" style="edgeStyle=orthogonalEdgeStyle;rounded=0;orthogonalLoop=1;jettySize=auto;html=1;" edge="1" parent="1">
          <mxGeometry relative="1" as="geometry">
            <mxPoint x="501" y="150" as="sourcePoint" />
            <mxPoint x="533" y="150" as="targetPoint" />
          </mxGeometry>
        </mxCell>
        <mxCell id="qCCX2EuZM0Db2eChla2d-15" style="edgeStyle=orthogonalEdgeStyle;rounded=0;orthogonalLoop=1;jettySize=auto;html=1;exitX=0;exitY=0.25;exitDx=0;exitDy=0;" edge="1" parent="1">
          <mxGeometry relative="1" as="geometry">
            <mxPoint x="573" y="125" as="targetPoint" />
            <mxPoint x="623" y="88.5" as="sourcePoint" />
          </mxGeometry>
        </mxCell>
        <mxCell id="qCCX2EuZM0Db2eChla2d-16" value="Reads of the junction region" style="text;html=1;strokeColor=none;fillColor=none;align=center;verticalAlign=middle;whiteSpace=wrap;rounded=0;" vertex="1" parent="1">
          <mxGeometry x="620" y="73" width="164" height="30" as="geometry" />
        </mxCell>
        <mxCell id="qCCX2EuZM0Db2eChla2d-17" value="ab_0c-R" style="shape=process;whiteSpace=wrap;html=1;backgroundOutline=1;" vertex="1" parent="1">
          <mxGeometry x="536" y="211" width="80" height="20" as="geometry" />
        </mxCell>
        <mxCell id="qCCX2EuZM0Db2eChla2d-18" value="" style="edgeStyle=orthogonalEdgeStyle;rounded=0;orthogonalLoop=1;jettySize=auto;html=1;" edge="1" parent="1">
          <mxGeometry relative="1" as="geometry">
            <mxPoint x="503" y="221" as="sourcePoint" />
            <mxPoint x="535" y="221" as="targetPoint" />
          </mxGeometry>
        </mxCell>
        <mxCell id="qCCX2EuZM0Db2eChla2d-19" value="c" style="rhombus;whiteSpace=wrap;html=1;fillColor=#dae8fc;strokeColor=#6c8ebf;" vertex="1" parent="1">
          <mxGeometry x="466" y="200" width="29" height="40" as="geometry" />
        </mxCell>
        <mxCell id="qCCX2EuZM0Db2eChla2d-20" value="" style="shape=image;html=1;verticalAlign=top;verticalLabelPosition=bottom;labelBackgroundColor=#ffffff;imageAspect=0;aspect=fixed;image=https://cdn4.iconfinder.com/data/icons/ionicons/512/icon-minus-128.png" vertex="1" parent="1">
          <mxGeometry x="446" y="218" width="13" height="13" as="geometry" />
        </mxCell>
        <mxCell id="qCCX2EuZM0Db2eChla2d-21" style="edgeStyle=orthogonalEdgeStyle;rounded=0;orthogonalLoop=1;jettySize=auto;html=1;exitX=0.5;exitY=1;exitDx=0;exitDy=0;" edge="1" parent="1" source="qCCX2EuZM0Db2eChla2d-22" target="qCCX2EuZM0Db2eChla2d-27">
          <mxGeometry relative="1" as="geometry" />
        </mxCell>
        <mxCell id="qCCX2EuZM0Db2eChla2d-22" value="UL" style="rhombus;whiteSpace=wrap;html=1;fillColor=#e3c800;strokeColor=#B09500;fontColor=#000000;" vertex="1" parent="1">
          <mxGeometry x="659" y="200" width="29" height="40" as="geometry" />
        </mxCell>
        <mxCell id="qCCX2EuZM0Db2eChla2d-23" value="" style="shape=image;html=1;verticalAlign=top;verticalLabelPosition=bottom;labelBackgroundColor=#ffffff;imageAspect=0;aspect=fixed;image=https://cdn3.iconfinder.com/data/icons/user-interface-169/32/plus-128.png" vertex="1" parent="1">
          <mxGeometry x="632" y="215.5" width="18" height="18" as="geometry" />
        </mxCell>
        <mxCell id="qCCX2EuZM0Db2eChla2d-24" style="edgeStyle=orthogonalEdgeStyle;rounded=0;orthogonalLoop=1;jettySize=auto;html=1;exitX=0.5;exitY=1;exitDx=0;exitDy=0;entryX=0;entryY=0.5;entryDx=0;entryDy=0;" edge="1" parent="1" source="qCCX2EuZM0Db2eChla2d-25" target="qCCX2EuZM0Db2eChla2d-27">
          <mxGeometry relative="1" as="geometry" />
        </mxCell>
        <mxCell id="qCCX2EuZM0Db2eChla2d-25" value="ULi" style="rhombus;whiteSpace=wrap;html=1;fillColor=#e3c800;strokeColor=#B09500;fontColor=#000000;" vertex="1" parent="1">
          <mxGeometry x="564" y="253" width="29" height="40" as="geometry" />
        </mxCell>
        <mxCell id="qCCX2EuZM0Db2eChla2d-26" value="" style="shape=image;html=1;verticalAlign=top;verticalLabelPosition=bottom;labelBackgroundColor=#ffffff;imageAspect=0;aspect=fixed;image=https://cdn3.iconfinder.com/data/icons/user-interface-169/32/plus-128.png" vertex="1" parent="1">
          <mxGeometry x="546" y="250" width="18" height="18" as="geometry" />
        </mxCell>
        <mxCell id="qCCX2EuZM0Db2eChla2d-27" value="UL-R" style="shape=process;whiteSpace=wrap;html=1;backgroundOutline=1;fillColor=#76608a;strokeColor=#432D57;fontColor=#ffffff;" vertex="1" parent="1">
          <mxGeometry x="620" y="332" width="80" height="20" as="geometry" />
        </mxCell>
        <mxCell id="qCCX2EuZM0Db2eChla2d-28" style="edgeStyle=orthogonalEdgeStyle;rounded=0;orthogonalLoop=1;jettySize=auto;html=1;exitX=0;exitY=0.25;exitDx=0;exitDy=0;entryX=0.75;entryY=0.4;entryDx=0;entryDy=0;entryPerimeter=0;" edge="1" parent="1" source="qCCX2EuZM0Db2eChla2d-29" target="qCCX2EuZM0Db2eChla2d-27">
          <mxGeometry relative="1" as="geometry" />
        </mxCell>
        <mxCell id="qCCX2EuZM0Db2eChla2d-29" value="Reads that map to UL region &amp;nbsp;of all isoform" style="text;html=1;strokeColor=none;fillColor=none;align=center;verticalAlign=middle;whiteSpace=wrap;rounded=0;" vertex="1" parent="1">
          <mxGeometry x="700" y="293" width="210" height="30" as="geometry" />
        </mxCell>
      </root>
    </mxGraphModel>
  </diagram>
</mxfile>
